<svg width="191" height="84" viewBox="0 0 191 84" fill="none" xmlns="http://www.w3.org/2000/svg">
<path d="M10.9647 11.8371H10.9619C16.7163 16.5895 33.3697 29.0104 62.8834 34.6463C72.1246 36.4102 96.7943 40.8733 124.965 34.0757C151.402 27.6978 164.863 15.2783 169.112 10.9614" stroke="#231F20" stroke-width="21.9229" stroke-linecap="round" stroke-linejoin="round"/>
<path d="M33.9243 37.355C33.8141 37.355 32.9709 38.0116 29.9351 41.538C23.9973 49.4712 19.6118 55.3457 18.1822 57.0874C17.3378 58.1712 16.2519 59.661 14.9243 61.355" stroke="#231F20" stroke-width="22" stroke-linecap="round"/>
<path d="M69.8256 49.7212C69.8256 50.1038 69.8256 54.4023 69.6037 61.2913C69.3818 64.0788 68.938 65.4281 68.5729 66.6671C68.2078 67.9062 67.9349 68.994 66.9619 72.9747" stroke="#231F20" stroke-width="22" stroke-linecap="round"/>
<path d="M114.962 45.7212C114.962 45.916 116.024 49.6736 116.462 55.7212C116.899 58.3184 118.956 61.4354 120.462 63.7212C121.968 66.007 121.833 67.2049 126.962 72.7212" stroke="#231F20" stroke-width="22" stroke-linecap="round"/>
<path d="M158.462 31.2212C159.153 32.1378 176.305 47.3694 179.313 50.0251" stroke="#231F20" stroke-width="22" stroke-linecap="round"/>
</svg>
