<svg width="67" height="91" viewBox="0 0 67 91" fill="none" xmlns="http://www.w3.org/2000/svg">
<g clip-path="url(#clip0_12_772)">
<path d="M21.2608 58.5934H9.05238L52.5815 9.62262L54.2307 11.0889L13.9662 56.3868H21.2608V58.5934Z" fill="#231F20"/>
<path d="M45.7015 55.3067C45.3153 55.3067 44.9269 55.2904 44.536 55.2585C42.5733 55.097 41.0438 54.5611 40.3905 54.3323C35.637 52.6669 32.7416 49.1055 31.4386 47.1311L31.1006 46.6184L31.3579 46.0609C32.9466 42.6192 35.346 39.8574 38.2971 38.0735C39.7488 37.1961 41.2871 36.5893 42.8695 36.2687C44.4954 35.9395 46.1312 35.9209 47.7322 36.2136C49.4452 36.5266 51.0833 37.1938 52.6007 38.1978C53.8184 39.0032 54.9635 40.0281 56.0041 41.2435C57.7433 43.2748 58.691 45.2555 58.9401 45.8141L59.1601 46.3083L58.9046 46.785C57.8664 48.7211 55.4902 52.2493 51.2407 54.1308C49.4742 54.913 47.6154 55.3067 45.7015 55.3067ZM33.6313 46.4262C34.9094 48.2182 37.357 50.9312 41.1204 52.2499C42.3515 52.6814 46.0987 53.9937 50.3476 52.1129C53.6691 50.6426 55.676 47.9644 56.6905 46.2241C55.8252 44.5128 52.8103 39.3841 47.3356 38.3842C44.6801 37.8993 41.9491 38.4446 39.4387 39.9625C37.026 41.4206 35.0278 43.6476 33.6313 46.4262Z" fill="#231F20"/>
<path d="M49.4586 54.7045C47.2124 54.6 45.1057 53.5704 43.5274 51.8039C41.9938 50.088 41.1169 47.8634 41.0583 45.5389C40.9538 41.3887 43.4647 37.5724 47.1648 36.2588L47.9035 38.3383C46.5522 38.8179 45.3467 39.7935 44.5088 41.0844C43.6673 42.3799 43.226 43.9425 43.2643 45.4837C43.3096 47.2856 43.9873 49.0079 45.1725 50.3336C46.353 51.6541 47.9116 52.4241 49.5608 52.5002L49.4586 54.7045Z" fill="#231F20"/>
<path d="M13.8425 33.9297C10.5819 32.1569 8.63138 29.6652 8.04488 26.5248C7.7075 24.7188 7.83351 22.705 8.41943 20.539C8.87527 18.8527 9.61101 17.0665 10.6051 15.2298C12.2833 12.13 14.1108 9.96291 14.188 9.87233L15.8708 11.2997C15.8023 11.381 8.98038 19.5327 10.2149 26.1241C10.4315 27.2808 10.8943 28.3365 11.5906 29.2622C12.378 30.3086 13.49 31.2266 14.8964 31.9914L13.8425 33.9297Z" fill="#231F20"/>
<path d="M21.2364 38.9028C19.3846 38.9028 18.0176 37.0887 17.8626 36.8732L17.7035 36.6532L17.6646 36.3843C17.6588 36.3437 17.0729 32.2777 16.8208 30.6976C16.1397 26.4313 17.7389 20.2539 17.8074 19.9932L19.9421 20.5529C19.9264 20.6122 18.3922 26.5451 18.9996 30.3503C19.2139 31.6935 19.6645 34.7961 19.8056 35.7717C20.1546 36.1689 20.7997 36.7368 21.2904 36.6944C21.6586 36.6619 22.0889 36.2002 22.4715 35.4273C22.705 34.9552 22.4808 33.6626 22.2637 32.4118C21.989 30.8288 21.647 28.8586 21.7393 26.613C21.8601 23.673 22.2317 21.5256 22.8763 20.0489C23.6562 18.2621 24.8808 17.3127 26.5172 17.2279C27.7878 17.1623 28.4091 17.8016 28.6663 18.1884C29.1791 18.9595 29.2186 20.0797 28.7871 21.6127C28.5369 22.5017 28.131 23.5307 27.5816 24.6712C27.1926 25.4789 27.1879 25.6595 27.1775 26.055L27.1757 26.1276C27.1542 26.8912 27.4777 27.678 27.7251 27.9829C30.031 26.0951 31.6401 24.0568 32.5105 21.9234C33.205 20.2202 33.435 18.4404 33.194 16.6339C32.7736 13.4877 31.0524 11.2973 31.0356 11.2753L32.7556 9.89263C32.8404 9.99773 34.8385 12.5115 35.3669 16.2343C35.6799 18.4398 35.4157 20.6122 34.5807 22.6905C33.5575 25.238 31.6737 27.6316 28.9817 29.8051C28.34 30.3231 27.5677 30.42 26.8627 30.071C25.6253 29.4578 24.9284 27.5532 24.9703 26.0654L24.972 25.9975C24.9888 25.3448 25.0394 24.8651 25.5939 23.7136C26.9191 20.9623 26.9487 19.7214 26.8436 19.4415C26.8087 19.434 26.7419 19.4258 26.6316 19.4316C26.0393 19.4624 24.2374 19.5559 23.9442 26.7036C23.8617 28.714 24.1677 30.4781 24.4378 32.0349C24.7531 33.8525 25.0022 35.2885 24.4494 36.4058C23.6823 37.9557 22.6806 38.7924 21.4716 38.8935C21.3926 38.8999 21.3142 38.9033 21.237 38.9033L21.2364 38.9028Z" fill="#231F20"/>
<path d="M18.3365 37.0178C14.8302 35.5748 13.5765 33.7642 13.4453 33.5627L13.4186 33.5192C12.3792 31.7504 11.2724 25.9069 12.4436 23.3077L14.4551 24.2142C13.7084 25.8715 14.4778 30.9049 15.3006 32.3659C15.4301 32.5396 16.4846 33.8693 19.1761 34.9773L18.3365 37.0178Z" fill="#231F20"/>
<path d="M65.8102 66.0623H0.645737V0.897179H65.8102V66.0617V66.0623ZM2.85236 63.8556H63.6036V3.1038H2.85236V63.855V63.8556Z" fill="#231F20"/>
</g>
<path d="M5.05505 81.0761C4.18245 81.0761 3.42519 80.9005 2.78328 80.5495C2.1514 80.1984 1.66496 79.697 1.32394 79.045C0.992955 78.3931 0.827463 77.6208 0.827463 76.7281C0.827463 75.8154 1.00299 75.0381 1.35403 74.3962C1.7151 73.7442 2.21158 73.2478 2.84346 72.9067C3.48537 72.5557 4.23761 72.3802 5.10018 72.3802C5.83236 72.3802 6.4843 72.5156 7.056 72.7864C7.6277 73.0472 8.08406 73.4133 8.42508 73.8847C8.76609 74.3561 8.95666 74.9177 8.99678 75.5697H6.9206C6.84036 75.0782 6.63976 74.7071 6.31881 74.4564C6.00788 74.2056 5.60167 74.0802 5.10018 74.0802C4.6689 74.0802 4.28275 74.1856 3.94173 74.3962C3.61075 74.5968 3.35499 74.8927 3.17445 75.2838C2.99391 75.675 2.90364 76.1564 2.90364 76.7281C2.90364 77.5706 3.10424 78.2276 3.50543 78.699C3.91666 79.1704 4.43319 79.4061 5.05505 79.4061C5.376 79.4061 5.66687 79.3459 5.92764 79.2256C6.18842 79.1052 6.40908 78.9347 6.58961 78.714C6.77015 78.4833 6.89552 78.2226 6.96573 77.9317H9.04191C8.9717 78.5736 8.75606 79.1303 8.39499 79.6017C8.03391 80.063 7.56251 80.4241 6.98078 80.6849C6.40908 80.9457 5.76716 81.0761 5.05505 81.0761ZM16.0286 81.0761C15.1459 81.0761 14.3837 80.9005 13.7418 80.5495C13.1099 80.1984 12.6234 79.702 12.2824 79.0601C11.9514 78.4081 11.7859 77.6308 11.7859 76.7281C11.7859 75.8254 11.9514 75.0531 12.2824 74.4112C12.6234 73.7593 13.1099 73.2578 13.7418 72.9067C14.3837 72.5557 15.1459 72.3802 16.0286 72.3802C17.3525 72.3802 18.3856 72.7663 19.1278 73.5386C19.88 74.3109 20.2561 75.3741 20.2561 76.7281C20.2561 77.6308 20.0856 78.4081 19.7446 79.0601C19.4136 79.702 18.9322 80.1984 18.3003 80.5495C17.6684 80.9005 16.9112 81.0761 16.0286 81.0761ZM16.0286 79.391C16.7006 79.391 17.2271 79.1553 17.6083 78.6839C17.9994 78.2025 18.195 77.5506 18.195 76.7281C18.195 75.8956 17.9994 75.2437 17.6083 74.7723C17.2271 74.3009 16.7006 74.0652 16.0286 74.0652C15.3465 74.0652 14.8099 74.3009 14.4188 74.7723C14.0376 75.2437 13.8471 75.8956 13.8471 76.7281C13.8471 77.5506 14.0376 78.2025 14.4188 78.6839C14.8099 79.1553 15.3465 79.391 16.0286 79.391ZM24.7153 77.1644V75.359H29.6048V77.1644H24.7153ZM38.5172 81.0761C37.7549 81.0761 37.0829 80.9507 36.5012 80.6999C35.9195 80.4392 35.4681 80.0731 35.1472 79.6017C34.8363 79.1303 34.6758 78.5686 34.6658 77.9167H36.5915C36.5815 78.4282 36.7469 78.8294 37.088 79.1202C37.439 79.4111 37.9104 79.5565 38.5022 79.5565C38.9635 79.5565 39.3346 79.4763 39.6155 79.3158C39.8963 79.1553 40.0367 78.9297 40.0367 78.6388C40.0367 78.3981 39.9415 78.2075 39.7509 78.0671C39.5603 77.9267 39.3096 77.8164 38.9986 77.7361C38.6978 77.6459 38.3618 77.5656 37.9906 77.4954C37.6195 77.4152 37.2484 77.3249 36.8773 77.2246C36.5062 77.1143 36.1652 76.9688 35.8543 76.7883C35.5434 76.6078 35.2926 76.3721 35.102 76.0812C34.9115 75.7803 34.8162 75.3992 34.8162 74.9378C34.8162 74.4263 34.9616 73.9799 35.2525 73.5988C35.5434 73.2177 35.9496 72.9218 36.4711 72.7112C37.0027 72.4905 37.6145 72.3802 38.3066 72.3802C39.3698 72.3802 40.2273 72.6259 40.8792 73.1174C41.5312 73.6088 41.8872 74.2909 41.9474 75.1635H40.0367C40.0066 74.7522 39.8361 74.4413 39.5252 74.2307C39.2243 74.01 38.8231 73.8997 38.3216 73.8997C37.8803 73.8997 37.5343 73.985 37.2835 74.1555C37.0328 74.3159 36.9074 74.5416 36.9074 74.8325C36.9074 75.0632 37.0027 75.2437 37.1933 75.3741C37.3838 75.4944 37.6296 75.5947 37.9305 75.675C38.2414 75.7552 38.5824 75.8254 38.9535 75.8856C39.3346 75.9458 39.7058 76.031 40.0668 76.1414C40.4379 76.2417 40.7739 76.3821 41.0748 76.5626C41.3858 76.7331 41.6365 76.9688 41.8271 77.2697C42.0176 77.5706 42.1129 77.9568 42.1129 78.4282C42.1129 79.2607 41.7869 79.9126 41.135 80.384C40.4831 80.8454 39.6105 81.0761 38.5172 81.0761ZM49.5359 81.0761C48.6432 81.0761 47.8759 80.9005 47.234 80.5495C46.6021 80.1984 46.1107 79.697 45.7596 79.045C45.4186 78.3931 45.2481 77.6208 45.2481 76.7281C45.2481 75.8154 45.4186 75.0381 45.7596 74.3962C46.1107 73.7442 46.6122 73.2478 47.2641 72.9067C47.916 72.5557 48.7034 72.3802 49.6261 72.3802C51.0604 72.3802 52.1035 72.7814 52.7554 73.5838C53.4174 74.3861 53.6983 75.4894 53.598 76.8936H46.903V75.4493H51.4917C51.4516 75.018 51.256 74.672 50.9049 74.4112C50.5639 74.1404 50.1326 74.005 49.6111 74.005C48.8388 74.005 48.2621 74.2457 47.8809 74.7272C47.5098 75.2086 47.3243 75.9057 47.3243 76.8184C47.3243 77.2998 47.4095 77.7361 47.58 78.1273C47.7506 78.5184 47.9963 78.8294 48.3172 79.0601C48.6482 79.2907 49.0544 79.4061 49.5359 79.4061C50.0574 79.4061 50.4987 79.2757 50.8598 79.0149C51.2309 78.7541 51.4566 78.4181 51.5368 78.0069H53.598C53.4876 78.9497 53.0714 79.697 52.3492 80.2486C51.6271 80.8002 50.6893 81.0761 49.5359 81.0761ZM60.6749 81.0761C59.7822 81.0761 59.0149 80.9005 58.373 80.5495C57.7411 80.1984 57.2497 79.697 56.8986 79.045C56.5576 78.3931 56.3871 77.6208 56.3871 76.7281C56.3871 75.8154 56.5576 75.0381 56.8986 74.3962C57.2497 73.7442 57.7512 73.2478 58.4031 72.9067C59.0551 72.5557 59.8424 72.3802 60.7651 72.3802C62.1994 72.3802 63.2425 72.7814 63.8945 73.5838C64.5564 74.3861 64.8373 75.4894 64.737 76.8936H58.042V75.4493H62.6307C62.5906 75.018 62.395 74.672 62.044 74.4112C61.7029 74.1404 61.2717 74.005 60.7501 74.005C59.9778 74.005 59.4011 74.2457 59.02 74.7272C58.6488 75.2086 58.4633 75.9057 58.4633 76.8184C58.4633 77.2998 58.5485 77.7361 58.7191 78.1273C58.8896 78.5184 59.1353 78.8294 59.4563 79.0601C59.7872 79.2907 60.1934 79.4061 60.6749 79.4061C61.1964 79.4061 61.6377 79.2757 61.9988 79.0149C62.3699 78.7541 62.5956 78.4181 62.6758 78.0069H64.737C64.6266 78.9497 64.2104 79.697 63.4883 80.2486C62.7661 80.8002 61.8283 81.0761 60.6749 81.0761Z" fill="black"/>
<defs>
<clipPath id="clip0_12_772">
<rect width="66.8955" height="66.8955" fill="white"/>
</clipPath>
</defs>
</svg>
