<?xml version="1.0" encoding="UTF-8"?>
<svg id="Layer_1" xmlns="http://www.w3.org/2000/svg" version="1.1" viewBox="0 0 3921 453">
  <!-- Generator: Adobe Illustrator 29.5.1, SVG Export Plug-In . SVG Version: 2.1.0 Build 141)  -->
  <defs>
    <style>
      .st0 {
        fill: #231f20;
      }
    </style>
  </defs>
  <path class="st0" d="M1725.5,392h-249.24l37.05-42.98c77.69-90.12,101.55-117.59,124.63-144.16,23.05-26.54,46.89-53.98,124.37-143.84l39.38,33.95c-77.54,89.94-101.41,117.42-124.5,143.99-18.89,21.75-38.31,44.09-87.44,101.03h135.74v52Z"/>
  <path class="st0" d="M766.04.04s.13.1,18.79,17.97c18.25,17.49,18.77,17.97,18.78,17.98h0s0,0,0,0c0,.01-.03.04-.07.07-.07.08-.2.21-.37.4-.35.37-.89.96-1.61,1.74-1.44,1.58-3.59,3.96-6.27,7.06-5.38,6.21-12.9,15.27-21.31,26.45-16.95,22.55-36.88,52.98-50.41,85.76-13.65,33.09-19.64,65.83-12.59,94.54,2.81,11.45,7.9,23.05,16.35,34.35-1.68-13.3-2.5-27.03-1.95-39.92.6-14.07,2.93-29.57,9.49-42.46l23.17,11.79,23.17,11.79c-1.62,3.17-3.41,9.99-3.88,21.1-.45,10.58.36,22.93,2.18,35.55,1.81,12.57,4.53,24.8,7.61,35.03,2.94,9.75,5.77,16.19,7.64,19.37.29.33.72.8,1.29,1.38,1.74,1.79,4.85,4.73,9.62,8.36,2.24,1.71,4.87,3.58,7.9,5.57-2.08-12.42-4.1-24.24-5.5-32.02h0c-6.39-35.43-1.56-77.69,4.02-109.1,2.86-16.11,6.08-30.19,8.58-40.25,1.25-5.04,2.34-9.1,3.11-11.93.39-1.42.7-2.53.92-3.3.11-.39.2-.69.26-.91.03-.11.06-.19.08-.26,0-.03.02-.06.02-.08,0,0,0-.02,0-.03,0,0,0,0,0,0,0,0,.31.08,24.93,7.38,24.12,7.15,24.9,7.37,24.93,7.38,0,0,0,.01,0,.02,0,.03-.02.07-.04.14-.04.14-.11.36-.19.67-.17.61-.44,1.55-.78,2.78-.68,2.47-1.65,6.12-2.79,10.71-2.29,9.21-5.23,22.1-7.84,36.79-5.36,30.19-8.71,64.86-4.04,90.77,2.22,12.27,5.83,33.86,8.87,52.22,1.53,9.21,2.91,17.67,3.92,23.82.12.71.23,1.38.33,2.02.21.19.43.39.65.59,3.65,3.26,7.92,6.3,11.99,7.96,3.82,1.56,5.83,1.32,7.1.86,1.39-.5,6.37-2.91,12.84-14.42.05-.2.67-2.26.28-8.05-.48-7.06-2.11-15.88-4.5-28.09-4.57-23.33-11.12-55.19-9.44-91.53,1.94-41.95,7.7-77.16,20.38-102.88,6.52-13.23,15.3-24.84,27.15-33.31,12.04-8.6,25.82-12.93,40.52-13.6h0c16.84-.77,34.6,4.49,44.53,21.4,8.25,14.05,7.06,30.1,5.08,40.99-4.17,22.9-16.98,48.62-25.36,64.02h0c-3.94,7.24-4.91,10.22-5.2,11.33-.22.85-.24.94-.39,5.65h0c-.09,2.78.39,6.47,1.61,10.37.6,1.92,1.31,3.65,2.04,5.15,39.83-29.87,61.91-58.75,73.54-84.39,12.24-26.99,13.63-51.97,10.17-73.55-3.51-21.88-12.07-40.56-19.99-53.95-3.93-6.64-7.6-11.81-10.21-15.24-1.3-1.71-2.32-2.97-2.97-3.74-.33-.39-.55-.65-.67-.79-.06-.07-.1-.1-.1-.11,0,0,.01,0,.01.02,0,0,.02.02.03.03,0,0,.01.02.01.02t19.25-17.48c19.09-17.38,19.24-17.49,19.25-17.48,0,0,.02.02.03.03.01.02.03.04.05.07.05.05.1.11.16.17.11.13.26.3.44.5.35.4.82.94,1.38,1.62,1.14,1.35,2.67,3.24,4.5,5.64,3.64,4.79,8.49,11.64,13.6,20.29,10.15,17.17,21.74,42.05,26.57,72.18,4.88,30.43,2.79,65.9-14.15,103.27-16.88,37.2-47.75,74.66-97.87,110.49h0c-11.13,7.95-24.47,10.39-37.32,6.26-11.45-3.68-19.65-11.63-25.02-18.8-10.63-14.19-16.89-34.2-16.32-52.22.11-3.29.08-9.45,1.99-16.89,1.83-7.16,5.1-14.49,9.9-23.29l.78-1.44c8.07-14.99,16.64-33.53,19.09-47.04.05-.25.09-.5.13-.74-3.74.63-6.54,1.9-8.87,3.57-3.26,2.33-7.03,6.46-10.74,13.99-7.79,15.8-13.22,42.16-15.07,82.29h0c-1.35,29.2,3.84,55.19,8.53,79.14,2.24,11.43,4.61,23.61,5.35,34.55.73,10.71.28,24.34-6.66,36.76h0c-10.45,18.71-23.88,32.06-40.62,38.13-16.86,6.11-32.66,3.24-44.53-1.63-11.62-4.76-20.93-11.95-26.92-17.31-3.1-2.77-5.59-5.3-7.35-7.19-.88-.95-1.6-1.75-2.12-2.36-.26-.3-.48-.56-.66-.77-.04-.05-.07-.09-.11-.13-24.47-9.96-41.97-20.79-53.98-29.94-6.85-5.22-11.88-9.87-15.36-13.45-.47-.48-.91-.95-1.33-1.39-55.59-28.07-86.18-66.5-96.98-110.46-10.77-43.86-.69-88.69,15.02-126.78,15.84-38.38,38.55-72.74,56.91-97.17,9.25-12.3,17.54-22.29,23.57-29.25,3.01-3.48,5.47-6.22,7.2-8.11.87-.95,1.55-1.69,2.04-2.21.24-.26.44-.46.58-.61.07-.07.13-.13.17-.18.02-.02.04-.04.05-.06,0,0,.02-.02.02-.02ZM874.94,170.8h0s0,0,0,0h0Z"/>
  <path d="M135,361.7c-27.74,0-51.77-5.64-72.09-16.93s-35.97-27.42-46.93-48.39C5.32,275.41,0,250.74,0,222.35s5.65-53.87,16.93-74.51c11.29-20.97,27.1-36.94,47.42-47.9,20.64-11.29,44.68-16.93,72.09-16.93,22.58,0,42.74,4.19,60.48,12.58,17.74,8.06,32.1,19.52,43.06,34.35,10.97,14.84,17.1,32.58,18.39,53.22h-57.58c-2.58-17.1-9.68-30-21.29-38.71-11.29-9.03-25.64-13.55-43.06-13.55-15.81,0-29.68,3.71-41.61,11.13-11.61,7.1-20.64,17.42-27.1,30.97-6.45,13.55-9.68,30-9.68,49.35,0,29.03,7.1,51.77,21.29,68.22,14.52,16.13,33.06,24.19,55.64,24.19,10.97,0,20.97-2.1,30-6.29,9.36-4.52,17.26-10.64,23.71-18.39,6.77-7.74,11.29-16.77,13.55-27.1h58.06c-2.9,20-10.16,37.42-21.77,52.26-11.29,14.84-25.97,26.29-44.03,34.35-17.74,8.06-37.58,12.1-59.51,12.1Z"/>
  <path class="st0" d="M3707.27,385.5c-6.21,0-12.45-.27-18.72-.81-31.34-2.7-55.59-11.59-65.95-15.39-75.29-27.61-120.93-86.31-141.44-118.84-4.95-7.85-5.5-17.64-1.56-25.96,24.96-56.29,62.68-101.54,109.12-130.91,23.17-14.66,47.77-24.81,73.12-30.18,26.19-5.55,52.56-5.86,78.38-.93,49.3,9.42,94.98,38.38,132.09,83.75,27.31,33.39,42.18,65.94,46.09,75.12,3.13,7.37,2.84,15.75-.82,22.88-16.37,31.96-53.92,90.25-121.42,121.52-28.34,13.13-58.16,19.75-88.89,19.75ZM3534.93,233.75c19.41,27.35,54.27,65.79,106.25,84.85,17.71,6.49,71.62,26.26,132.27-1.85,45.75-21.2,74.41-59.22,89.84-85.77-14.81-29.35-58.12-101.11-133.22-115.47-37.69-7.21-76.59.99-112.5,23.71-33.92,21.45-62.28,53.95-82.65,94.52Z"/>
  <path class="st0" d="M3764.99,375.75c-.55,0-1.1-.02-1.66-.05-32.31-1.96-62.04-20.46-83.72-52.09-19.56-28.55-30.74-65.25-31.48-103.36-.64-32.82,6.35-64.89,20.2-92.72,14.79-29.71,35.92-51.58,61.12-63.25,13.53-6.27,29.58-.38,35.85,13.15,6.27,13.53.38,29.58-13.15,35.85-13.75,6.37-26.35,19.98-35.48,38.32-9.85,19.78-15.02,43.79-14.55,67.61,1.03,53.56,30.56,100.54,64.47,102.59,14.88.9,26.22,13.7,25.32,28.58-.87,14.33-12.76,25.37-26.92,25.37Z"/>
  <path d="M2310.96,361.7c-23.87,0-44.99-4.03-63.38-12.1-18.06-8.39-32.1-20.16-42.1-35.32s-15.16-33.06-15.48-53.71h54.19c-.32,18.06,5.49,32.26,17.42,42.58,12.26,10.32,28.71,15.48,49.35,15.48,16.46,0,29.68-3.07,39.68-9.19s15-14.52,15-25.16c0-8.39-3.06-15.16-9.19-20.32-6.13-5.16-14.36-9.19-24.68-12.1-10-2.9-21.13-5.48-33.39-7.74-11.93-2.58-24.03-5.48-36.29-8.71-12.25-3.55-23.54-8.06-33.87-13.55-9.99-5.81-18.06-13.39-24.19-22.74-6.13-9.36-9.19-21.29-9.19-35.81,0-15.81,4.35-29.68,13.06-41.61,9.03-12.26,21.78-21.77,38.23-28.55,16.45-6.77,35.8-10.16,58.06-10.16,33.55,0,60.64,7.9,81.29,23.71,20.64,15.48,31.77,36.93,33.38,64.35h-53.7c-.97-14.52-6.94-25.64-17.91-33.39-10.64-7.74-25-11.61-43.06-11.61-16.45,0-29.19,3.23-38.22,9.68-8.71,6.45-13.07,14.68-13.07,24.68,0,8.39,3.07,14.84,9.19,19.35,6.46,4.52,14.68,8.06,24.68,10.64,10,2.58,21.13,5,33.39,7.26,12.26,1.94,24.35,4.52,36.29,7.74,12.25,3.23,23.38,7.74,33.38,13.55,10.33,5.48,18.55,13.06,24.68,22.74,6.45,9.68,9.68,22.26,9.68,37.74,0,25.48-10.33,45.64-30.97,60.48-20.32,14.52-47.74,21.77-82.26,21.77Z"/>
  <path d="M2967.48,361.7c-28.06,0-52.26-5.48-72.58-16.45-20.32-11.29-35.97-27.42-46.93-48.39-10.65-20.97-15.97-45.97-15.97-75s5.48-53.87,16.45-74.51c10.97-20.97,26.77-36.93,47.42-47.9,20.64-10.97,45.32-16.45,74.03-16.45,44.51,0,77.26,12.42,98.22,37.26,21.29,24.84,30.49,58.87,27.58,102.09h-217.73l.48-42.1,158.22.48c-1.29-15.48-8.06-27.9-20.32-37.26-12.26-9.35-27.74-14.03-46.45-14.03-26.45,0-46.45,8.23-60,24.68-13.55,16.45-20.32,39.84-20.32,70.16,0,17.42,3.06,33.06,9.19,46.94,6.13,13.55,14.84,24.19,26.13,31.93,11.61,7.42,25.81,11.13,42.58,11.13,19.03,0,34.84-4.52,47.42-13.55,12.9-9.03,20.8-21.13,23.71-36.29h58.06c-3.87,30-17.42,53.71-40.64,71.13-22.91,17.42-52.42,26.13-88.55,26.13Z"/>
</svg>